<?xml version="1.0" encoding="iso-8859-1"?>
<!-- Generator: Adobe Illustrator 18.0.0, SVG Export Plug-In . SVG Version: 6.00 Build 0)  -->
<!DOCTYPE svg PUBLIC "-//W3C//DTD SVG 1.1//EN" "http://www.w3.org/Graphics/SVG/1.1/DTD/svg11.dtd">
<svg version="1.1" id="Capa_1" xmlns="http://www.w3.org/2000/svg" xmlns:xlink="http://www.w3.org/1999/xlink" x="0px" y="0px"
	 viewBox="0 0 183.153 183.153" style="enable-background:new 0 0 183.153 183.153;" xml:space="preserve">
<g>
        <path d="M53.1 185.5c-1.1 0-2.2-.4-3-1.3L15.8 150c-1.7-1.7-1.7-4.4 0-6.1 1.7-1.7 4.4-1.7 6.1 0l34.3 34.3c1.7 1.7 1.7 4.4 0 6.1-.9.8-2 1.2-3.1 1.2z" fill="#F3F3F3" data-color="1"></path>
        <path d="M120.4 75.5c-.9 0-1.8-.4-2.5-1.1l-14.2-14.2c-1.4-1.4-1.4-3.7 0-5.1s3.7-1.4 5.1 0L123 69.4c1.4 1.4 1.4 3.7 0 5.1-.7.7-1.7 1-2.6 1z" fill="#f97425" data-color="2"></path>
        <path d="M106.2 78.4c-.9 0-1.8-.4-2.5-1.1l-8.5-8.5c-1.4-1.4-1.4-3.7 0-5.1 1.4-1.4 3.7-1.4 5.1 0l8.5 8.5c1.4 1.4 1.4 3.7 0 5.1-.8.7-1.7 1.1-2.6 1.1z" fill="#f97425" data-color="2"></path>
        <path d="M103.3 92.6c-.9 0-1.8-.4-2.5-1.1L86.6 77.3c-1.4-1.4-1.4-3.7 0-5.1s3.7-1.4 5.1 0l14.2 14.2c1.4 1.4 1.4 3.7 0 5.1-.7.8-1.6 1.1-2.6 1.1z" fill="#f97425" data-color="2"></path>
        <path d="M89.1 95.5c-.9 0-1.8-.4-2.5-1.1L78 85.9c-1.4-1.4-1.4-3.7 0-5.1 1.4-1.4 3.7-1.4 5.1 0l8.5 8.5c1.4 1.4 1.4 3.7 0 5.1-.7.7-1.6 1.1-2.5 1.1z" fill="#f97425" data-color="2"></path>
        <path d="M86.2 109.7c-.9 0-1.8-.4-2.5-1.1L69.5 94.4c-1.4-1.4-1.4-3.7 0-5.1s3.7-1.4 5.1 0l14.2 14.2c1.4 1.4 1.4 3.7 0 5.1-.7.8-1.6 1.1-2.6 1.1z" fill="#f97425" data-color="2"></path>
        <path d="M72 112.6c-.9 0-1.8-.4-2.5-1.1L61 103c-1.4-1.4-1.4-3.7 0-5.1s3.7-1.4 5.1 0l8.5 8.5c1.4 1.4 1.4 3.7 0 5.1-.8.7-1.7 1.1-2.6 1.1z" fill="#f97425" data-color="2"></path>
        <path d="M69.2 126.8c-.9 0-1.8-.4-2.5-1.1l-14.2-14.2c-1.4-1.4-1.4-3.7 0-5.1s3.7-1.4 5.1 0l14.2 14.2c1.4 1.4 1.4 3.7 0 5.1-.8.8-1.7 1.1-2.6 1.1z" fill="#f97425" data-color="2"></path>
        <path d="M83.8 167.7c-1.1 0-2.2-.4-3-1.3l-47.1-47.1c-1.7-1.7-1.7-4.4 0-6.1 1.7-1.7 4.4-1.7 6.1 0l47.1 47.1c1.7 1.7 1.7 4.4 0 6.1-.9.8-2 1.3-3.1 1.3z" fill="#F3F3F3" data-color="1"></path>
        <path d="M43.8 176.2c-1.1 0-2.2-.5-3-1.3L25 159.2c-1.7-1.7-1.7-4.4 0-6.1l24.3-24.3c1.7-1.7 4.4-1.7 6.1 0l15.7 15.7c.8.8 1.3 1.9 1.3 3s-.5 2.2-1.3 3L46.9 175c-.9.8-2 1.2-3.1 1.2zm-9.6-20l9.6 9.6L62 147.6l-9.6-9.6-18.2 18.2z" fill="#F3F3F3" data-color="1"></path>
        <path d="M146.3 79.4c-1.1 0-2.2-.4-3-1.3-1.7-1.7-1.7-4.4 0-6.1l12.6-12.6-15.3-15.3L128 56.7c-1.7 1.7-4.4 1.7-6.1 0-1.7-1.7-1.7-4.4 0-6.1L137.5 35c1.7-1.7 4.4-1.7 6.1 0L165 56.4c1.7 1.7 1.7 4.4 0 6.1l-15.7 15.7c-.8.8-1.9 1.2-3 1.2z" fill="#F3F3F3" data-color="1"></path>
        <path d="M80.1 161.2c-1.1 0-2.2-.4-3-1.3-1.7-1.7-1.7-4.4 0-6.1l69.6-69.6-30.9-30.9L46.1 123c-1.7 1.7-4.4 1.7-6.1 0s-1.7-4.4 0-6.1l72.6-72.6c1.7-1.7 4.4-1.7 6.1 0l37 37c.8.8 1.3 1.9 1.3 3s-.5 2.2-1.3 3L83.1 160c-.8.8-1.9 1.2-3 1.2z" fill="#F3F3F3" data-color="1"></path>
        <path d="M152.7 51.6c-1.1 0-2.2-.4-3-1.3-1.7-1.7-1.7-4.4 0-6.1l28.5-28.5c1.7-1.7 4.4-1.7 6.1 0 1.7 1.7 1.7 4.4 0 6.1l-28.5 28.5c-.9.9-2 1.3-3.1 1.3z" fill="#F3F3F3" data-color="1"></path>

</g>
<g>
</g>
<g>
</g>
<g>
</g>
<g>
</g>
<g>
</g>
<g>
</g>
<g>
</g>
<g>
</g>
<g>
</g>
<g>
</g>
<g>
</g>
<g>
</g>
<g>
</g>
<g>
</g>
<g>
</g>
</svg>
